Patient4_TMGait_0pt3_02_left_10_EMG.mot
version=1
nRows=26
nColumns=33
inDegrees=no
endheader
time	1LAddLong	2LGlutMax	3LGlutMed	4LIliopsoas	5LSemiMemb	6LBicFemLong	7LRecFem	8LVastMed	9LVastLat	10LGasMed	11LTibAnt	12lTibPost	13LPeroneusLong	14LSol	15LExtDigLong	16LFlexDigLong	17RAddLong	18RGlutMax	19RGlutMed	20RIliopsoas	21RSemiMemb	22RBicFemLong	23RRecFem	24RVastMed	25RVastLat	26RGasMed	27RTibAnt	28RTibPost	29RPeroneusLong	30RSol	31RExtDigLong	32RFlexDigLong
20.105	0.018463	0.12848	-0.037231	-0.001984	0.12009	0.071716	0.007172	0.023804	-0.2179	-0.011292	0.005035	-0.009155	0.007019	-0.088348	-0.005035	-0.02655	-0.044556	0.058746	-0.079193	0.07782	-0.093842	0.1648	0.103	0.039063	0.031738	-0.020905	0.048828	-0.000916	0.2742	0.029907	-0.010681	-0.003357
20.106	0.020294	0.1268	-0.008545	-0.018158	0.079193	0.055389	-0.016632	0.014191	-0.24414	-0.033569	-0.001526	0.006714	-0.005951	0.070953	0.006714	-0.01358	-0.042114	0.069122	-0.21408	0.083771	-0.011902	0.05661	0.11124	0.031128	0.042572	-0.00824	0.03891	0.009613	0.20264	-0.24994	-0.007935	0.001221
20.107	0.011902	0.15701	0.073395	0.000763	0.044708	0.033417	-0.074768	-0.000153	-0.085449	-0.068359	0.003357	-0.000458	0.006866	0.093994	0.004883	-0.018005	-0.04425	0.10223	0.050964	0.038147	0.091248	-0.093384	0.087585	-0.036469	0.040436	-0.001984	0.055237	-0.001526	0.14694	-0.27344	-0.001221	-0.009003
20.108	0.008087	0.17822	0.13092	0.010223	0.000305	0.050201	-0.11551	-0.021515	0.159	-0.10071	-0.007477	-0.010834	0.022888	0.009613	-0.003967	-0.014343	-0.024261	0.059967	0.31265	-0.003967	0.081482	0.036469	0.12329	0.007477	0.038757	-0.001526	0.045471	-0.016937	0.082397	-0.16403	-0.006104	-0.006409
20.109	-0.006104	0.18509	0.083923	0.003357	-0.042725	0.062408	0.096893	-0.037537	0.20874	-0.045471	0.006714	-0.002136	-0.015869	-0.024719	-0.015869	-0.006104	0.006714	0.065613	0.19272	-0.042725	0.032806	0.13351	0.15533	-0.075836	0.027008	0.00351	0.023193	-0.021667	0.063477	-0.033875	-0.006714	-0.014954
20.11	-0.003357	0.1564	0.002289	-0.002747	0.000305	-0.023499	0.21896	-0.023956	0.14282	-0.03006	0.005341	0.019836	-0.037384	0.00351	-0.004425	-0.009003	0.025482	0.044556	0.055389	0.008087	-0.017395	0.11765	0.14496	-0.072174	0.021667	-0.000305	0.034027	-0.02182	0.084534	0.029755	-0.003357	-0.01236
20.111	-0.00412	0.13489	0.087585	0.005798	0.034485	-0.017548	0.22507	-0.014191	0.12238	-0.011444	0.004578	0.007935	-0.037842	0.063019	-0.00412	-0.000458	0.029907	0.050354	0.031891	-0.045624	-0.044403	0.11948	0.13107	-0.08255	0.020752	-0.001678	0.023956	-0.029755	0.30609	0.033569	-0.005646	-0.008087
20.112	-0.00885	0.084229	0.040588	0.00473	-0.006561	0.081635	0.19134	0.001068	0.085602	-0.016174	0.008087	-0.001984	-0.05127	0.15396	-0.000916	-0.006866	0.034027	0.010834	-0.27512	-0.077362	-0.06485	0.050049	0.094452	-0.04715	0.056152	-0.000916	0.010071	-0.029449	0.17868	-0.003357	-0.002441	-0.013885
20.113	-0.012512	0.074768	-0.037384	0.003662	-0.036011	0.19058	0.13611	-0.00473	0.049133	-0.028839	0.008392	0.005646	-0.035095	0.1561	-0.003357	-0.00885	0.007324	-0.002289	-0.11322	-0.061646	0.097046	-0.016479	0.10269	-0.021515	0.035248	-0.001831	0.037842	-0.022583	-0.093536	-0.049591	-0.005798	-0.003357
20.114	-0.012817	0.055847	-0.082855	-0.006104	-0.072937	0.20462	0.11719	0.002136	0.026855	-0.069427	-0.001831	0.005646	0.062714	0.038605	0.003052	-0.002289	-0.020447	0.028076	-0.00061	-0.042572	0.13672	-0.046692	0.086212	-0.012665	0.024261	-0.002594	0.056152	-0.018311	-0.15518	-0.036926	-0.009766	-0.00946
20.115	-0.000153	0.031891	-0.11505	-0.006866	-0.036926	0.074921	0.075836	0.001068	0.037079	-0.089417	0.000153	0.008545	0.2063	0.014343	0.012665	-0.015106	-0.008545	-0.033417	0.040436	-0.024109	0.015106	-0.029907	0.086212	-0.052338	0.05188	-0.002441	0.036926	-0.018768	-0.037537	-0.042267	-0.003662	-0.008392
20.116	0.016174	-0.012054	-0.061493	-0.01709	0.005341	-0.059967	0.055084	0.005035	0.050507	-0.13428	0.001984	0.018311	0.19562	0.015411	0.028839	-0.003357	0.018311	0.056305	0.007477	0.035706	0.003052	-0.02243	0.066071	-0.048981	0.050201	-0.002899	0.046082	-0.015869	-0.12299	-0.058289	-0.001831	-0.013428
20.117	0.034943	-0.004578	-0.003662	-0.036011	0.03006	-0.021667	0.074463	0.008392	0.027313	-0.15595	0.001678	-0.006409	0.11261	0.023346	0.057068	-0.008392	0.02655	0.085144	-0.078278	0.13504	0.045166	-0.035095	0.088501	-0.046234	0.040894	-0.008698	0.051727	-0.022736	-0.11871	-0.052185	-0.002441	-0.001526
20.118	0.046692	-0.001678	-0.03418	-0.004883	0.065002	0.1265	0.06012	-0.000916	0.025482	-0.10651	0.024261	-0.018921	-0.054626	0.059052	0.056305	-0.00824	0.027008	0.044556	-0.19287	0.18372	0.051422	0.019836	0.081635	-0.046082	0.03891	0.002136	0.027313	-0.017242	0.15671	-0.05661	-0.005951	-0.005951
20.119	0.032501	0.008087	0.020752	-0.01358	0.04364	0.022736	0.045471	0.00824	0.040588	-0.11459	-0.001373	0.008392	0.45181	0.088654	0.027008	-0.012665	0.024109	0.034943	-0.18188	0.13138	0.040894	0.036621	0.11185	-0.079803	0.047455	0.003967	0.039825	-0.019531	0.081024	-0.11993	-0.002899	-0.006409
20.12	0.01358	0.008392	-0.054779	0.001526	-0.021973	-0.088501	0.059357	0.001526	0.031433	-0.12405	-0.031891	0.004883	0.22934	0.10208	-0.024872	-0.055695	0.016174	0.059052	0.057983	0.013733	0.087128	-0.012207	0.079651	-0.016022	0.028381	0.003357	0.036621	-0.028076	-0.049591	-0.17639	-0.004272	-0.009918
20.121	0.01236	0.02655	-0.066986	0.009918	-0.096436	-0.068512	0.061493	0.006866	0.024872	-0.0383	0.019379	-0.006104	-0.23178	0.048828	-0.078278	-0.061646	0.046844	0.11429	0.00473	0.011749	0.059509	-0.048218	0.062256	-0.058746	0.040283	0.001373	0.016937	-0.035095	0.39719	-0.020599	-0.005493	-0.01297
20.122	-0.010681	-0.034027	-0.068054	-0.001526	-0.06485	0.031738	0.069885	0.005951	0.014648	0.066223	0.025024	0.007172	-0.39352	0.056915	-0.076599	0.040436	0.07309	0.088959	-0.089569	0.027924	0.079346	-0.046387	0.058594	-0.071869	0.068512	0.006256	-0.016022	-0.037231	0.49301	-0.057068	-0.005035	-0.019836
20.123	-0.032043	-0.043793	-0.07309	-0.00946	0.071564	0.11231	0.073242	0.015869	-0.016785	0.18524	0.005188	-0.002136	-0.24628	0.075989	-0.036621	0.10162	0.055695	0.011444	0.046082	0.050507	-0.19913	-0.063019	0.058746	-0.044708	0.078125	0.008545	-0.003967	0.018463	-0.10788	-0.090027	-0.003967	-0.016022
20.124	0.033875	-0.007935	-0.07843	-0.001373	0.055542	0.18539	0.096436	0.004578	-0.006104	0.21316	0.00473	0.001678	-0.23239	0.042267	-0.025024	-0.00351	0.05661	0.02182	-0.055695	0.036469	-0.19653	-0.077057	0.11475	-0.1181	0.059357	0.019836	0.011749	0.034485	-0.35812	0.12146	-0.010986	-0.01236
20.125	-0.068207	0.00824	-0.052338	-0.00412	-0.011597	0.12405	0.076294	0.021667	0.01709	0.1767	0.000763	0.003357	-0.16632	-0.068359	-0.053711	-0.013275	0.046082	0.050201	-0.020447	0.037689	-0.34393	0.076447	0.092316	-0.19836	0.053864	-0.005951	-0.041351	0.002289	0.18906	0.16907	-0.005341	-0.017242
20.126	0.037231	0.032654	-0.045471	0.001221	0.040588	-0.11139	0.035553	0.011902	0.02655	0.1416	-0.007782	-0.005646	-0.017853	-0.17944	-0.045929	-0.014038	0.068665	0.04364	-0.035553	-0.000153	-0.29129	0.22934	0.13306	-0.12283	0.057373	-0.018921	-0.03952	-0.050049	-0.36621	0.14877	-0.00061	-0.016327
20.127	-0.011902	0.04776	-0.046692	-0.006866	0.059967	-0.046234	0.018921	0.019836	0.024261	0.068207	-0.010529	-0.003662	-0.098114	-0.16739	0.004883	-0.004272	0.0177	0.056915	0.081329	-0.015869	0.062256	0.30838	0.11368	-0.020294	0.070801	-0.016479	-0.021362	-0.17487	-0.23834	0.11658	-0.008545	-0.007477
20.128	-0.011292	0.05722	-0.007019	0.003052	0.010376	0.007782	0.041809	0.019531	0.019073	0.040436	-0.024567	-0.006866	0.072479	-0.029602	0.028076	-0.010681	0.004883	0.01358	0.12573	-0.04303	-0.15305	0.14481	0.065765	0.00824	0.041656	-0.016022	-0.001373	-0.56	0.13672	0.17883	-0.003967	-0.004272
20.129	0.000153	0.052032	-0.020599	0.000153	-0.029907	0.045624	0.051575	0.006714	0.031891	0.007629	-0.008392	0.008545	0.2623	0.079803	0.014191	-0.010376	-0.039673	0.055237	-0.069885	-0.031281	-0.15442	0.074158	0.087891	0.046387	0.02121	-0.016174	0.003052	0.40436	0.47669	-0.25207	0.001526	-0.019073
20.13	0.022736	0.01358	-0.034637	0.001678	0.036011	0.10681	0.029449	0.000153	0.036163	0.058289	-0.010376	0.005035	0.63644	0.029449	-0.049744	-0.032501	-0.037079	0.048981	-0.006561	-0.0737	0.12375	-0.10315	0.11627	0.039978	0.022583	-0.00946	0.034027	0.3244	0.52277	-0.24048	-0.003357	-0.026093
